<svg width="442" height="344" viewBox="0 0 442 344" fill="none" xmlns="http://www.w3.org/2000/svg">
<path d="M407.785 271.781C428.832 251.039 441.46 225.017 441.46 196.623C441.46 135.394 382.911 84.804 306.604 75.7728C282.496 31.6883 225.859 0.691345 159.809 0.691345C71.8697 0.691345 0.615018 55.4909 0.615018 123.148C0.615018 151.467 13.2434 177.489 34.2907 198.306C22.5807 221.803 5.74291 240.018 5.43676 240.324C0.615018 245.452 -0.762623 252.953 2.0692 259.458C4.82448 265.964 11.2535 270.173 18.2948 270.173C59.2413 270.173 92.3047 254.713 114.117 240.477C121.159 242.085 128.43 243.309 135.853 244.228C159.886 288.159 216.292 319.08 282.266 319.08C298.186 319.08 313.493 317.243 328.034 313.875C349.847 328.034 382.834 343.571 423.857 343.571C430.898 343.571 437.251 339.362 440.083 332.856C442.838 326.35 441.537 318.85 436.715 313.722C436.409 313.492 419.495 295.277 407.785 271.781ZM107.153 201.138L94.065 209.634C83.2735 216.598 72.2524 222.109 61.0782 226.012C63.1446 222.415 65.2111 218.588 67.201 214.685L79.064 190.882L60.0832 172.131C49.7509 161.875 37.3521 145.114 37.3521 123.148C37.3521 76.6912 93.4527 37.4285 159.809 37.4285C226.166 37.4285 282.266 76.6912 282.266 123.148C282.266 169.605 226.166 208.868 159.809 208.868C147.181 208.868 134.552 207.414 122.307 204.582L107.153 201.138ZM381.992 245.605L363.088 264.28L374.951 288.083C376.941 291.986 379.007 295.813 381.074 299.41C369.899 295.507 358.878 289.996 348.087 283.031L334.999 274.536L319.769 278.056C307.523 280.888 294.895 282.342 282.266 282.342C240.937 282.342 204.047 266.959 181.775 244.304C259.305 236.038 319.003 185.066 319.003 123.148C319.003 120.546 318.697 118.02 318.468 115.495C367.756 126.592 404.723 158.967 404.723 196.623C404.723 218.588 392.324 235.35 381.992 245.605Z" fill="#4AA0EB"/>
</svg>
